<mxfile host="app.diagrams.net" modified="2023-12-28T00:38:10.863Z" agent="Mozilla/5.0 (Macintosh; Intel Mac OS X 10_15_7) AppleWebKit/537.36 (KHTML, like Gecko) Chrome/120.0.0.0 Safari/537.36" version="22.1.15" etag="R4khoF6Y8DTwZrgBZL7d" type="github">
  <diagram name="Strona-1" id="N_dNfgAPEgXGJc9P8XzQ">
    <mxGraphModel>
      <root>
        <mxCell id="0" />
        <mxCell id="1" parent="0" />
      </root>
    </mxGraphModel>
  </diagram>
</mxfile>
